<svg width="333" height="305" viewBox="0 0 333 305" fill="none" xmlns="http://www.w3.org/2000/svg">
<g clip-path="url(#clip0_201_2217)">
<path d="M148.809 136.869C148.809 145.828 156.718 153.072 166.5 153.072C176.282 153.072 184.191 145.828 184.191 136.869C184.191 127.909 176.282 120.666 166.5 120.666C156.718 120.666 148.809 127.909 148.809 136.869ZM130.13 186.479H202.87C202.87 168.084 186.584 153.119 166.5 153.119C146.416 153.119 130.13 168.036 130.13 186.479Z" fill="white"/>
<path d="M225.972 175.756H264.787V40.4125H289.502L245.379 0L201.257 40.4125H225.972V175.756Z" fill="#BCBCBC"/>
<path d="M107.028 129.244H68.213V264.587H43.4981L87.6206 305L131.743 264.587H107.028V129.244Z" fill="#F1EFEC"/>
<path d="M333 224.747L288.878 184.334V206.971H141.109V242.523H288.878V265.159L333 224.747Z" fill="#7C7C7C"/>
<path d="M44.1225 98.0289H191.891V62.4773H44.1225V39.8406L0 80.2531L44.1225 120.666V98.0289Z" fill="#D4C9BE"/>
</g>
<defs>
<clipPath id="clip0_201_2217">
<rect width="333" height="305" fill="white"/>
</clipPath>
</defs>
</svg>
