<svg xmlns="http://www.w3.org/2000/svg" width="149.268" height="40.864" viewBox="0 0 149.268 40.864"><defs><style>.a{fill:#a11e29;}</style></defs><g transform="translate(-19.9 -20.4)"><path class="a" d="M165.213,28.478a9.442,9.442,0,0,0-5.634-2.172l-.679-.068V20.4h.815a16.76,16.76,0,0,1,9.91,3.394,17.539,17.539,0,0,1,6.177,9.843h0a1.092,1.092,0,0,1-.815.882l-3.733.95a1.9,1.9,0,0,1-2.308-1.29A12.919,12.919,0,0,0,165.213,28.478Z" transform="translate(-44.647)"/><path class="a" d="M197.569,61.2h2.919V20.4h-2.919a3.867,3.867,0,0,0-3.869,3.869V57.394A3.81,3.81,0,0,0,197.569,61.2Z" transform="translate(-55.825 0)"/><path class="a" d="M23.769,61.2h2.919V20.4H23.769A3.867,3.867,0,0,0,19.9,24.269V57.394A3.81,3.81,0,0,0,23.769,61.2Z" transform="translate(0 0)"/><path class="a" d="M54.254,26.849a10.142,10.142,0,0,0-3.394-4.073A13.007,13.007,0,0,0,45.7,20.807a34.781,34.781,0,0,0-6.109-.407H32.668v6.177H40a21.147,21.147,0,0,1,4.616.339,5.094,5.094,0,0,1,2.851,2.036,6.286,6.286,0,0,1,1.086,3.8,5.938,5.938,0,0,1-1.833,4.684c-1.29,1.086-3.462,1.7-6.652,1.7H32.6v6.109h7.331c5.77,0,9.843-1.222,12.083-3.733a12.97,12.97,0,0,0,3.394-9.028,11.218,11.218,0,0,0-1.154-5.634Z" transform="translate(-4.079 0)"/><path class="a" d="M108.378,44.9H89.1v6.177h15.409a3.867,3.867,0,0,0,3.869-3.869Z" transform="translate(-22.227 -7.869)"/><path class="a" d="M106.477,20.4H89.1v6.177h21.246V24.2A3.81,3.81,0,0,0,106.477,20.4Z" transform="translate(-22.227 0)"/><path class="a" d="M89.1,77.577h17.377a3.867,3.867,0,0,0,3.869-3.869V71.4H89.1Z" transform="translate(-22.227 -16.381)"/><path class="a" d="M80.169,61.2h2.919V20.4H80.169A3.867,3.867,0,0,0,76.3,24.269V57.394A3.81,3.81,0,0,0,80.169,61.2Z" transform="translate(-18.116 0)"/><path class="a" d="M139.735,22.74a17.092,17.092,0,0,0-6.992,7.059A22.527,22.527,0,0,0,130.3,40.525a27.2,27.2,0,0,0,2.1,10.521,16.72,16.72,0,0,0,6.313,7.6,18,18,0,0,0,8.078,2.512l.815.068V55.39l-.679-.136a13.955,13.955,0,0,1-4.276-1.493,9.687,9.687,0,0,1-4.209-5.023,21.668,21.668,0,0,1-1.425-8.213,20.589,20.589,0,0,1,1.222-7.059,10.385,10.385,0,0,1,4-5.295,11.422,11.422,0,0,1,4.684-1.765l.679-.068V20.5l-.882.136A18.9,18.9,0,0,0,139.735,22.74Z" transform="translate(-35.461 -0.032)"/><path class="a" d="M165.213,65.261a9.442,9.442,0,0,1-5.634,2.172l-.679.068v5.838h.815a16.76,16.76,0,0,0,9.91-3.394A17.539,17.539,0,0,0,175.8,60.1h0a1.092,1.092,0,0,0-.815-.882l-3.733-.95a1.9,1.9,0,0,0-2.308,1.29A12.919,12.919,0,0,1,165.213,65.261Z" transform="translate(-44.647 -12.143)"/><path class="a" d="M226.964,42.665a10.3,10.3,0,0,0-4.276-3.258,9.859,9.859,0,0,0,2.987-3.055,10.1,10.1,0,0,0,1.493-5.159,10.4,10.4,0,0,0-1.629-5.566,9.711,9.711,0,0,0-4.616-3.937,19.286,19.286,0,0,0-7.535-1.29H206.6v6.177h5.159a21.955,21.955,0,0,1,5.77.543,4.077,4.077,0,0,1,2.24,1.7,5.709,5.709,0,0,1,.815,3.055,4.73,4.73,0,0,1-.882,2.987,4.806,4.806,0,0,1-2.579,1.7,19.208,19.208,0,0,1-4.752.407H206.6V43.14h6.381a18.844,18.844,0,0,1,5.5.611,5.082,5.082,0,0,1,2.715,1.969,5.59,5.59,0,0,1,1.018,3.394,5.8,5.8,0,0,1-.679,2.919,5.181,5.181,0,0,1-1.7,1.9,7.53,7.53,0,0,1-2.715.95,18.682,18.682,0,0,1-3.394.2h-7.059v6.177h7.059a25.6,25.6,0,0,0,6.516-.679,12.266,12.266,0,0,0,4.548-2.1,10.869,10.869,0,0,0,3.122-3.937,12.54,12.54,0,0,0,1.222-5.5A11.26,11.26,0,0,0,226.964,42.665Z" transform="translate(-59.969 0)"/></g></svg>