<svg width="38" height="38" viewBox="0 0 38 38" fill="none" xmlns="http://www.w3.org/2000/svg">
<path fill-rule="evenodd" clip-rule="evenodd" d="M37.9797 5.73794C37.9682 5.17392 37.7346 4.63718 37.3295 4.24414C36.9244 3.8511 36.3806 3.63347 35.8159 3.63846C35.363 3.64131 34.9221 3.78399 34.5536 4.04696C33.3097 4.85309 31.852 5.26684 30.3697 5.23445C28.291 5.22495 25.5771 4.45545 24.7703 2.27048C24.5501 1.6188 24.1338 1.05097 23.5783 0.64458C23.0229 0.238191 22.3554 0.0130752 21.667 0H16.342C15.6525 0.0128471 14.9836 0.23773 14.4266 0.644015C13.8696 1.0503 13.4515 1.61823 13.2292 2.27048C12.421 4.45545 9.70806 5.23445 7.6294 5.23445C6.1473 5.26523 4.68998 4.85161 3.44546 4.04696C3.07713 3.78395 2.63635 3.64125 2.18362 3.63846C1.61888 3.63335 1.0749 3.85091 0.669721 4.24397C0.264545 4.63702 0.0308667 5.17384 0.0193745 5.73794C-0.39807 24.7092 5.93204 35.5581 18.83 37.9901C18.8865 37.998 18.9436 38.0012 19.0007 37.9996C19.0611 38.0009 19.1215 37.9978 19.1814 37.9901C22.3201 37.4462 25.2989 36.2133 27.903 34.3802C28.41 34.4755 28.9247 34.5232 29.4406 34.5226C31.7071 34.5171 33.879 33.614 35.4801 32.0113C37.0812 30.4086 37.9809 28.2371 37.9821 25.9727C37.9858 24.2096 37.4384 22.4892 36.4164 21.0518C37.5917 16.7388 38.1128 11.6342 37.9797 5.73794ZM30.0459 32.5847C29.8445 32.6118 29.6414 32.6245 29.4382 32.6227C28.7582 32.6259 28.0821 32.5201 27.4357 32.3092C26.5655 32.0361 25.7617 31.5852 25.0754 30.9849C24.3892 30.3847 23.8354 29.6483 23.4495 28.8227C23.1586 28.2374 22.9659 27.6084 22.879 26.9607C22.8218 26.6345 22.7931 26.3039 22.7934 25.9727C22.7948 24.5577 23.2472 23.1799 24.0849 22.039C24.9226 20.898 26.1022 20.0531 27.4528 19.6268H27.4623C28.1006 19.4243 28.7666 19.3218 29.4363 19.3228H29.5219C30.4228 19.3351 31.3117 19.531 32.1342 19.8985C32.9566 20.2661 33.6953 20.7975 34.3049 21.4603C34.8802 22.0727 35.3286 22.7926 35.6243 23.5788C35.9264 24.3408 36.081 25.1531 36.0798 25.9727C36.0803 27.628 35.4617 29.2238 34.3454 30.447C33.2292 31.6702 31.6957 32.4326 30.0459 32.5847ZM34.8669 19.3798C33.4806 18.2329 31.7662 17.5544 29.9698 17.4418C30.2563 16.1028 30.4654 14.7484 30.5959 13.3854C30.6118 13.2572 30.5997 13.1272 30.5603 13.0042C30.521 12.8811 30.4555 12.7681 30.3682 12.6729C30.2854 12.5734 30.1827 12.4925 30.0667 12.4352C29.9506 12.3779 29.8238 12.3456 29.6945 12.3404C25.6056 12.1694 21.9784 10.4689 19.7386 7.66642C19.6474 7.55926 19.5339 7.47318 19.4061 7.41415C19.2783 7.35512 19.1391 7.32456 18.9983 7.32456C18.8575 7.32456 18.7184 7.35512 18.5906 7.41415C18.4628 7.47318 18.3493 7.55926 18.2581 7.66642C16.0182 10.4689 12.3929 12.1694 8.30264 12.3404C8.05045 12.3504 7.81257 12.4601 7.64133 12.6453C7.47009 12.8306 7.3795 13.0762 7.38953 13.3281C7.39955 13.5801 7.50936 13.8177 7.69478 13.9888C7.8802 14.1599 8.12604 14.2504 8.37824 14.2404C12.6016 14.0694 16.4076 12.4259 18.9983 9.6994C21.5586 12.2924 24.968 13.8774 28.6024 14.1644C28.465 15.2979 28.2687 16.4236 28.0143 17.5368C26.0227 17.8788 24.2161 18.9129 22.9137 20.4565C21.6113 22.0001 20.8967 23.9539 20.8963 25.9727C20.8958 26.6673 20.9786 27.3594 21.1431 28.0342C21.2928 28.6402 21.5125 29.2268 21.7978 29.7822C22.6178 31.431 23.9496 32.7706 25.5942 33.6012C23.5616 34.8172 21.3276 35.6601 18.9979 36.0901C7.2771 33.7912 1.5256 23.5978 1.91499 5.78544C1.91794 5.73727 1.93408 5.69085 1.96162 5.65121C1.98917 5.61157 2.02706 5.58025 2.0712 5.56065C2.11534 5.54106 2.164 5.53393 2.21191 5.54007C2.25982 5.5462 2.30514 5.56536 2.3429 5.59544C3.90637 6.63546 5.75099 7.17251 7.62893 7.13443C11.1691 7.13443 14.0636 5.48145 15.0126 2.92597C15.1022 2.63953 15.2777 2.3875 15.5154 2.20399C15.7531 2.02048 16.0415 1.91436 16.3415 1.89998H21.6665C21.9649 1.91601 22.2513 2.02292 22.4871 2.20634C22.7228 2.38976 22.8968 2.64088 22.9855 2.92597C23.4994 4.23743 24.4654 5.32229 25.7093 5.98494C27.1367 6.76455 28.7422 7.16063 30.3687 7.13443C32.2468 7.17249 34.0915 6.63544 35.6552 5.59544C35.7008 5.55854 35.7577 5.53841 35.8164 5.53845C35.8842 5.53676 35.95 5.56166 35.9997 5.60782C36.0494 5.65399 36.0789 5.71774 36.0822 5.78544C36.2516 10.3499 35.8433 14.9175 34.8669 19.3798ZM21.7983 29.7822C20.9762 30.1777 20.1138 30.4835 19.2261 30.6942C19.0766 30.7322 18.92 30.7322 18.7706 30.6942C13.2283 29.3452 9.74514 25.1557 8.11245 17.8883C8.0856 17.7669 8.08297 17.6414 8.10467 17.5189C8.12638 17.3965 8.17202 17.2795 8.23897 17.1747C8.30593 17.0699 8.39289 16.9793 8.49489 16.908C8.5969 16.8368 8.71196 16.7863 8.83349 16.7595C8.95502 16.7327 9.08064 16.73 9.20319 16.7517C9.32575 16.7734 9.44284 16.819 9.54776 16.8859C9.65269 16.9528 9.7434 17.0396 9.81471 17.1416C9.88602 17.2435 9.93653 17.3584 9.96338 17.4798C12.0416 26.7327 17.0528 28.3097 18.9969 28.7942C19.7373 28.6188 20.4566 28.364 21.1421 28.0342C21.2923 28.6403 21.5125 29.2269 21.7983 29.7822ZM28.3666 29.6734C28.1147 29.6731 27.8733 29.573 27.6953 29.3951L24.9719 26.6691C24.8067 26.4887 24.7175 26.2516 24.7229 26.0072C24.7282 25.7628 24.8277 25.5298 25.0006 25.3568C25.1735 25.1838 25.4065 25.084 25.6511 25.0782C25.8957 25.0725 26.1332 25.1611 26.3141 25.3258L28.3666 27.3801L32.5643 23.1774C32.651 23.0826 32.7561 23.0064 32.8731 22.9534C32.9902 22.9004 33.1167 22.8716 33.2452 22.8687C33.3737 22.8659 33.5014 22.8892 33.6207 22.9371C33.7399 22.985 33.8482 23.0565 33.939 23.1474C34.0298 23.2382 34.1012 23.3465 34.1489 23.4658C34.1967 23.585 34.2197 23.7126 34.2167 23.841C34.2136 23.9693 34.1846 24.0957 34.1313 24.2125C34.078 24.3294 34.0015 24.4342 33.9065 24.5207L29.0374 29.3951C28.9493 29.4834 28.8446 29.5534 28.7293 29.6012C28.614 29.6489 28.4904 29.6735 28.3656 29.6734H28.3666Z" fill="white"/>
</svg>
